<svg width="149" height="224" viewBox="0 0 149 224" fill="none" xmlns="http://www.w3.org/2000/svg">
<g clip-path="url(#clip0_271_1183)">
<path d="M132.374 17.6842C121.22 5.89474 105.436 0 85.233 0H33.2514V61.2632H55.3489V24H81.2344C110.908 24 125.64 38.9474 125.64 68.8421C125.64 84.2105 121.641 96 113.644 104.421C105.647 112.842 93.8616 117.053 78.4986 117.053H55.3489V85.8947H33.2514V221.474C33.2514 221.474 33.2514 221.474 33.4619 221.474C45.6681 217.684 54.2966 210.105 55.5593 201.263V140.842H80.3926C101.438 140.842 118.064 133.895 130.48 120.211C142.897 106.526 149 88.8421 149 67.3684C149 46.1053 143.528 29.4737 132.374 17.6842Z" fill="#0F74A9"/>
<path d="M24.6228 33.2631V223.368C21.4661 223.789 18.3093 224 15.1525 224C6.94488 224 0.210419 217.263 0.210419 209.053V33.2631H24.6228Z" fill="#13B9B1"/>
<path d="M108.172 33.2631H22.0974V61.4737H108.172V33.2631Z" fill="#13B9B1"/>
<path d="M86.9166 85.8947H22.0974V110.737H86.9166V85.8947Z" fill="#13B9B1"/>
</g>
<defs>
<clipPath id="clip0_271_1183">
<rect width="149" height="224" fill="white"/>
</clipPath>
</defs>
</svg>
