<svg width="40" height="40" viewBox="0 0 40 40" fill="none" xmlns="http://www.w3.org/2000/svg">
<path fill-rule="evenodd" clip-rule="evenodd" d="M0.83252 9.76109C0.83252 7.60815 2.54575 5.83252 4.69615 5.83252H31.9689C34.1194 5.83252 35.8325 7.60815 35.8325 9.76109V18.3325C35.8325 18.7927 35.4594 19.1659 34.9992 19.1659C34.539 19.1659 34.1659 18.7927 34.1659 18.3325V9.76109C34.1659 8.49514 33.1657 7.49919 31.9689 7.49919H4.69615C3.49937 7.49919 2.49919 8.49514 2.49919 9.76109V25.2374C2.49919 26.5032 3.49937 27.4992 4.69615 27.4992H16.6659C17.126 27.4992 17.4992 27.8724 17.4992 28.3325C17.4992 28.7927 17.126 29.1659 16.6659 29.1659H4.69615C2.54575 29.1659 0.83252 27.3902 0.83252 25.2374V9.76109Z" fill="white"/>
<path fill-rule="evenodd" clip-rule="evenodd" d="M0.83252 11.666C0.83252 11.2057 1.20562 10.8325 1.66585 10.8325H34.9992C35.4594 10.8325 35.8325 11.2057 35.8325 11.666C35.8325 12.1263 35.4594 12.4994 34.9992 12.4994H1.66585C1.20562 12.4994 0.83252 12.1263 0.83252 11.666Z" fill="white"/>
<path fill-rule="evenodd" clip-rule="evenodd" d="M4.16504 19.9982C4.16504 19.5381 4.53814 19.165 4.99837 19.165H8.33171C8.79194 19.165 9.16504 19.5381 9.16504 19.9982C9.16504 20.4582 8.79194 20.8313 8.33171 20.8313H4.99837C4.53814 20.8313 4.16504 20.4582 4.16504 19.9982Z" fill="white"/>
<path fill-rule="evenodd" clip-rule="evenodd" d="M4.16504 24.1657C4.16504 23.7056 4.53814 23.3325 4.99837 23.3325H11.665C12.1253 23.3325 12.4984 23.7056 12.4984 24.1657C12.4984 24.6257 12.1253 24.9988 11.665 24.9988H4.99837C4.53814 24.9988 4.16504 24.6257 4.16504 24.1657Z" fill="white"/>
<path fill-rule="evenodd" clip-rule="evenodd" d="M29.9964 22.4991C25.8544 22.4991 22.4967 25.8569 22.4967 29.9989C22.4967 34.1409 25.8544 37.4986 29.9964 37.4986C34.1385 37.4986 37.4962 34.1409 37.4962 29.9989C37.4962 25.8569 34.1385 22.4991 29.9964 22.4991ZM20.8301 29.9989C20.8301 24.9364 24.9339 20.8325 29.9964 20.8325C35.0589 20.8325 39.1628 24.9364 39.1628 29.9989C39.1628 35.0614 35.0589 39.1652 29.9964 39.1652C24.9339 39.1652 20.8301 35.0614 20.8301 29.9989Z" fill="white"/>
<path fill-rule="evenodd" clip-rule="evenodd" d="M32.7419 28.5765C33.0674 28.2512 33.595 28.2512 33.9204 28.5765C34.2458 28.9021 34.2458 29.4298 33.9204 29.7553L30.5874 33.0889C30.2619 33.4143 29.7343 33.4143 29.4088 33.0889L26.909 30.5887C26.5837 30.2632 26.5837 29.7355 26.909 29.41C27.2345 29.0846 27.7621 29.0846 28.0876 29.41L29.9981 31.321L32.7419 28.5765Z" fill="white"/>
</svg>
