<svg width="58" height="58" viewBox="0 0 58 58" fill="none" xmlns="http://www.w3.org/2000/svg">
<path d="M20.2686 36.6708C19.9756 36.9636 19.9755 37.4385 20.2684 37.7314C20.5612 38.0244 21.0361 38.0245 21.329 37.7316L29.0028 30.0606L36.6738 37.7315C36.9667 38.0244 37.4415 38.0244 37.7344 37.7315C38.0273 37.4386 38.0273 36.9638 37.7344 36.6709L30.0636 29L37.7344 21.3291C38.0273 21.0362 38.0273 20.5614 37.7344 20.2685C37.4415 19.9756 36.9667 19.9756 36.6738 20.2685L29.0028 27.9394L21.329 20.2684C21.0361 19.9755 20.5612 19.9756 20.2684 20.2686C19.9755 20.5615 19.9756 21.0364 20.2686 21.3292L27.9421 29L20.2686 36.6708ZM57.25 29C57.25 44.6025 44.6025 57.25 29 57.25C13.3975 57.25 0.75 44.6025 0.75 29C0.75 13.3975 13.3975 0.75 29 0.75C44.6025 0.75 57.25 13.3975 57.25 29Z" stroke="#FF0000" stroke-width="1.5" stroke-linecap="round" stroke-linejoin="round"/>
</svg>
