<svg width="40" height="40" viewBox="0 0 40 40" fill="none" xmlns="http://www.w3.org/2000/svg">
  <!-- Encaissement : portefeuille + flĶche d'entrķe -->
  <path fill-rule="evenodd" clip-rule="evenodd" d="M6 14.5C6 12.0147 8.01472 10 10.5 10H22.5C24.9853 10 27 12.0147 27 14.5V16H29C30.6569 16 32 17.3431 32 19V29C32 30.6569 30.6569 32 29 32H10.5C8.01472 32 6 29.9853 6 27.5V14.5ZM10.5 12C9.11929 12 8 13.1193 8 14.5V27.5C8 28.8807 9.11929 30 10.5 30H29C29.5523 30 30 29.5523 30 29V19C30 18.4477 29.5523 18 29 18H8V16H25V14.5C25 13.1193 23.8807 12 22.5 12H10.5Z" fill="white"/>
  <path d="M20.7071 6.29289C21.0976 6.68342 21.0976 7.31658 20.7071 7.70711L16.4142 12H34C34.5523 12 35 12.4477 35 13C35 13.5523 34.5523 14 34 14H16.4142L20.7071 18.2929C21.0976 18.6834 21.0976 19.3166 20.7071 19.7071C20.3166 20.0976 19.6834 20.0976 19.2929 19.7071L13.5858 14L19.2929 8.29289C19.6834 7.90237 20.3166 7.90237 20.7071 8.29289Z" fill="white"/>
  <path d="M12 22.5C12 21.6716 12.6716 21 13.5 21H18.5C19.3284 21 20 21.6716 20 22.5C20 23.3284 19.3284 24 18.5 24H13.5C12.6716 24 12 23.3284 12 22.5Z" fill="white"/>
</svg>
