<svg width="40" height="40" viewBox="0 0 40 40" fill="none" xmlns="http://www.w3.org/2000/svg">
<g clip-path="url(#clip0_264_37)">
<path d="M15 16.6667C10.405 16.6667 6.66669 12.9283 6.66669 8.33333C6.66669 3.73833 10.405 0 15 0C19.595 0 23.3334 3.73833 23.3334 8.33333C23.3334 12.9283 19.595 16.6667 15 16.6667ZM15 1.66667C11.3234 1.66667 8.33335 4.65667 8.33335 8.33333C8.33335 12.01 11.3234 15 15 15C18.6767 15 21.6667 12.01 21.6667 8.33333C21.6667 4.65667 18.6767 1.66667 15 1.66667Z" fill="white"/>
<path d="M14.1667 35H0.833333C0.373333 35 0 34.6267 0 34.1667V27.5C0 23.365 3.365 20 7.5 20H17.5C17.96 20 18.3333 20.3733 18.3333 20.8333C18.3333 21.2933 17.96 21.6667 17.5 21.6667H7.5C4.28333 21.6667 1.66667 24.2833 1.66667 27.5V33.3333H14.1667C14.6267 33.3333 15 33.7067 15 34.1667C15 34.6267 14.6267 35 14.1667 35Z" fill="white"/>
<path d="M28.3333 33.3333C26.0367 33.3333 24.1667 31.4633 24.1667 29.1667C24.1667 26.87 26.0367 25 28.3333 25C30.63 25 32.5 26.87 32.5 29.1667C32.5 31.4633 30.63 33.3333 28.3333 33.3333ZM28.3333 26.6667C26.955 26.6667 25.8334 27.7883 25.8334 29.1667C25.8334 30.545 26.955 31.6667 28.3333 31.6667C29.7117 31.6667 30.8333 30.545 30.8333 29.1667C30.8333 27.7883 29.7117 26.6667 28.3333 26.6667Z" fill="white"/>
<path d="M29.6617 40H27.0034C26.1434 40 25.43 39.355 25.345 38.4983L25.1334 36.38C24.6284 36.155 24.1467 35.875 23.6917 35.5417L21.745 36.42C20.9634 36.7767 20.045 36.4783 19.6167 35.7333L18.2884 33.4317C17.8584 32.6867 18.0617 31.7467 18.7584 31.245L20.4734 30.0117C20.44 29.7533 20.4167 29.4667 20.4167 29.1667C20.4167 28.8667 20.44 28.5783 20.4734 28.3217L18.7584 27.0884C18.0617 26.5867 17.8584 25.6467 18.2884 24.9017L19.6167 22.6C20.0467 21.855 20.96 21.56 21.745 21.9134L23.6917 22.7917C24.1467 22.4584 24.6284 22.1784 25.1334 21.9534L25.345 19.835C25.43 18.98 26.1434 18.335 27.0034 18.335H29.6617C30.5217 18.335 31.235 18.98 31.32 19.8367L31.5317 21.955C32.0384 22.18 32.52 22.4617 32.9734 22.7934L34.92 21.915C35.705 21.5634 36.62 21.8584 37.0484 22.6017L38.3767 24.9034C38.8067 25.6484 38.6034 26.5883 37.9067 27.09L36.1917 28.3233C36.225 28.5817 36.2484 28.8683 36.2484 29.1683C36.2484 29.4683 36.225 29.7567 36.1917 30.0133L37.9067 31.2467C38.6034 31.7483 38.8067 32.6883 38.3767 33.4333L37.05 35.7333C36.62 36.4767 35.7084 36.775 34.9217 36.42L32.975 35.5417C32.52 35.875 32.0384 36.155 31.5334 36.38L31.32 38.5C31.235 39.355 30.5217 40 29.6617 40ZM23.8084 33.7417C24 33.7417 24.19 33.8083 24.3434 33.9367C24.9084 34.41 25.5334 34.7717 26.1984 35.015C26.4984 35.125 26.71 35.3967 26.7417 35.715L27.005 38.3333H29.6634L29.925 35.715C29.9567 35.3967 30.1684 35.125 30.4684 35.015C31.1334 34.7717 31.7584 34.4083 32.3234 33.9367C32.57 33.7317 32.91 33.685 33.2 33.8167L35.6067 34.9033L36.935 32.6017L34.805 31.0717C34.545 30.885 34.4167 30.565 34.47 30.25C34.5317 29.8983 34.5817 29.54 34.5817 29.17C34.5817 28.8 34.5317 28.4417 34.47 28.09C34.415 27.775 34.545 27.4567 34.805 27.2683L36.935 25.7383L35.6067 23.4367L33.2 24.5217C32.9084 24.6534 32.5684 24.6067 32.3217 24.4017C31.7584 23.9284 31.135 23.5667 30.4667 23.3234C30.1667 23.2134 29.955 22.9417 29.9234 22.6234L29.6617 20H27.0034L26.7417 22.6184C26.71 22.9367 26.4984 23.2084 26.1984 23.3184C25.5334 23.5617 24.9084 23.925 24.3434 24.3967C24.0984 24.6017 23.7584 24.65 23.4667 24.5167L21.06 23.43L19.7317 25.7317L21.8617 27.2617C22.1217 27.4483 22.25 27.7683 22.1967 28.0833C22.135 28.435 22.085 28.7933 22.085 29.1633C22.085 29.5333 22.135 29.8917 22.1967 30.2433C22.2517 30.5583 22.1217 30.8767 21.8617 31.065L19.7317 32.595L21.06 34.8967L23.4667 33.8117C23.5767 33.765 23.6917 33.7417 23.8084 33.7417Z" fill="white"/>
</g>
<defs>
<clipPath id="clip0_264_37">
<rect width="40" height="40" fill="white"/>
</clipPath>
</defs>
</svg>
