<svg width="66" height="66" viewBox="0 0 66 66" fill="none" xmlns="http://www.w3.org/2000/svg">
<g clip-path="url(#clip0_63_480)">
<path d="M33 3.66675C27.1984 3.66675 21.5271 5.38712 16.7032 8.61031C11.8794 11.8335 8.11968 16.4147 5.89951 21.7747C3.67934 27.1347 3.09844 33.0326 4.23027 38.7227C5.3621 44.4128 8.15583 49.6395 12.2582 53.7419C16.3605 57.8442 21.5872 60.6379 27.2773 61.7698C32.9674 62.9016 38.8654 62.3207 44.2253 60.1005C49.5853 57.8804 54.1666 54.1206 57.3897 49.2968C60.6129 44.473 62.3333 38.8017 62.3333 33.0001C62.3333 25.2204 59.2428 17.7593 53.7418 12.2583C48.2407 6.75722 40.7797 3.66675 33 3.66675ZM33 58.6667C27.9236 58.6667 22.9612 57.1614 18.7403 54.3411C14.5195 51.5208 11.2297 47.5123 9.28706 42.8223C7.34442 38.1323 6.83613 32.9716 7.82648 27.9928C8.81684 23.0139 11.2613 18.4406 14.8509 14.851C18.4404 11.2615 23.0138 8.81695 27.9927 7.82659C32.9715 6.83624 38.1322 7.34452 42.8222 9.28717C47.5121 11.2298 51.5207 14.5196 54.341 18.7404C57.1613 22.9613 58.6666 27.9237 58.6666 33.0001C58.6666 39.8073 55.9625 46.3357 51.149 51.1491C46.3356 55.9626 39.8072 58.6667 33 58.6667Z" fill="#00B127"/>
<path d="M51.3334 22.1833C50.9899 21.8418 50.5252 21.6501 50.0409 21.6501C49.5565 21.6501 49.0919 21.8418 48.7484 22.1833L28.3984 42.4416L17.3984 31.4416C17.0629 31.0794 16.5972 30.8652 16.1038 30.8463C15.6105 30.8274 15.1298 31.0053 14.7675 31.3408C14.4053 31.6763 14.1912 32.1419 14.1723 32.6353C14.1534 33.1287 14.3312 33.6094 14.6667 33.9716L28.3984 47.6666L51.3334 24.7866C51.5052 24.6162 51.6416 24.4134 51.7347 24.19C51.8278 23.9666 51.8757 23.727 51.8757 23.4849C51.8757 23.2429 51.8278 23.0033 51.7347 22.7799C51.6416 22.5565 51.5052 22.3537 51.3334 22.1833Z" fill="#00B127"/>
</g>
<defs>
<clipPath id="clip0_63_480">
<rect width="66" height="66" fill="white"/>
</clipPath>
</defs>
</svg>
