<svg width="40" height="40" viewBox="0 0 40 40" fill="none" xmlns="http://www.w3.org/2000/svg">
<g clip-path="url(#clip0_264_47)">
<path d="M32.6666 8.16669C32.5 8.16669 32.3333 8.16669 32.1666 8.00002C28.8333 5.00002 24.5 3.33335 20 3.33335C15.6666 3.33335 11.3333 4.83335 7.99997 7.83335C7.66664 8.00002 7.16664 8.00002 6.83331 7.66669C6.49997 7.33335 6.66664 6.83335 6.99997 6.50002C10.5 3.33335 15.1666 1.66669 20 1.66669C24.8333 1.66669 29.6666 3.50002 33.3333 6.66669C33.6666 7.00002 33.6666 7.50002 33.3333 7.83335C33.1666 8.00002 33 8.16669 32.6666 8.16669Z" fill="white"/>
<path d="M12.5 8.33335H7.50002C7.00002 8.33335 6.66669 8.00002 6.66669 7.50002V2.50002C6.66669 2.00002 7.00002 1.66669 7.50002 1.66669C8.00002 1.66669 8.33335 2.00002 8.33335 2.50002V6.66669H12.5C13 6.66669 13.3333 7.00002 13.3333 7.50002C13.3333 8.00002 13 8.33335 12.5 8.33335Z" fill="white"/>
<path d="M20.1666 38.3333C15.3333 38.3333 10.5 36.5 6.83331 33.3334C6.49998 33 6.49998 32.5 6.83331 32.1667C7.16665 31.8334 7.66665 31.8334 7.99998 32.1667C11.3333 35.1667 15.6666 36.8333 20.1666 36.8333C24.5 36.8333 28.8333 35.3333 32.1666 32.3334C32.5 32 33 32 33.3333 32.5C33.6666 32.8334 33.6666 33.3334 33.1666 33.6667C29.6666 36.6667 25 38.3333 20.1666 38.3333Z" fill="white"/>
<path d="M32.6666 38.3333C32.1666 38.3333 31.8333 38 31.8333 37.5V33.3333H27.6666C27.1666 33.3333 26.8333 33 26.8333 32.5C26.8333 32 27.1666 31.6667 27.6666 31.6667H32.6666C33.1666 31.6667 33.5 32 33.5 32.5V37.5C33.5 38 33.1666 38.3333 32.6666 38.3333Z" fill="white"/>
<path d="M8.33335 20C6.00002 20 4.16669 18.1667 4.16669 15.8334C4.16669 13.5 6.00002 11.6667 8.33335 11.6667C10.6667 11.6667 12.5 13.5 12.5 15.8334C12.5 18.1667 10.6667 20 8.33335 20ZM8.33335 13.3334C7.00002 13.3334 5.83335 14.5 5.83335 15.8334C5.83335 17.1667 7.00002 18.3334 8.33335 18.3334C9.66669 18.3334 10.8334 17.1667 10.8334 15.8334C10.8334 14.5 9.66669 13.3334 8.33335 13.3334Z" fill="white"/>
<path d="M15.8333 28.3333C15.3333 28.3333 15 28 15 27.5V25.8333C15 24.5 13.8333 23.3333 12.5 23.3333H4.16667C2.83333 23.3333 1.66667 24.5 1.66667 25.8333V27.5C1.66667 28 1.33333 28.3333 0.833333 28.3333C0.333333 28.3333 0 28 0 27.5V25.8333C0 23.5 1.83333 21.6666 4.16667 21.6666H12.5C14.8333 21.6666 16.6667 23.5 16.6667 25.8333V27.5C16.6667 28 16.3333 28.3333 15.8333 28.3333Z" fill="white"/>
<path d="M31.6667 20C29.3333 20 27.5 18.1667 27.5 15.8334C27.5 13.5 29.3333 11.6667 31.6667 11.6667C34 11.6667 35.8333 13.5 35.8333 15.8334C35.8333 18.1667 34 20 31.6667 20ZM31.6667 13.3334C30.3333 13.3334 29.1667 14.5 29.1667 15.8334C29.1667 17.1667 30.3333 18.3334 31.6667 18.3334C33 18.3334 34.1667 17.1667 34.1667 15.8334C34.1667 14.5 33 13.3334 31.6667 13.3334Z" fill="white"/>
<path d="M39.1667 28.3333C38.6667 28.3333 38.3334 28 38.3334 27.5V25.8333C38.3334 24.5 37.1667 23.3333 35.8334 23.3333H27.5C26.1667 23.3333 25 24.5 25 25.8333V27.5C25 28 24.6667 28.3333 24.1667 28.3333C23.6667 28.3333 23.3334 28 23.3334 27.5V25.8333C23.3334 23.5 25.1667 21.6666 27.5 21.6666H35.8334C38.1667 21.6666 40 23.5 40 25.8333V27.5C40 28 39.6667 28.3333 39.1667 28.3333Z" fill="white"/>
</g>
<defs>
<clipPath id="clip0_264_47">
<rect width="40" height="40" fill="white"/>
</clipPath>
</defs>
</svg>
