<svg width="38" height="38" viewBox="0 0 38 38" fill="none" xmlns="http://www.w3.org/2000/svg">
<path d="M26.8406 13.1227C26.3846 12.6746 25.707 12.5448 25.118 12.7902C24.529 13.0356 24.1458 13.6119 24.1458 14.25V15.8333H13.8541C12.9801 15.8333 12.2708 16.5427 12.2708 17.4167C12.2708 18.2907 12.9801 19 13.8541 19H24.1458V20.5834C24.1458 21.2214 24.529 21.7978 25.118 22.0432C25.3159 22.1271 25.5233 22.1667 25.7291 22.1667C26.1361 22.1667 26.5382 22.0084 26.8406 21.7107L30.0548 18.544C30.3572 18.2464 30.5266 17.8394 30.5266 17.4167C30.5266 16.9939 30.3572 16.587 30.0548 16.2893L26.8406 13.1227Z" fill="white"/>
<path d="M9.50004 15.8333H7.91671C7.04271 15.8333 6.33337 16.5426 6.33337 17.4166C6.33337 18.2907 7.04271 19 7.91671 19H9.50004C10.374 19 11.0834 18.2907 11.0834 17.4166C11.0834 16.5426 10.374 15.8333 9.50004 15.8333Z" fill="white"/>
<path d="M34.8064 4.75H23.7753C22.0146 4.75 20.5833 6.21458 20.5833 8.01483V12.6667H21.2483C21.5618 11.7784 22.1429 11.0089 22.9045 10.4437V8.61017C22.9045 7.79158 23.5552 7.125 24.3564 7.125H34.2253C35.0265 7.125 35.6772 7.79 35.6772 8.61017V28.5H22.9045V24.3881C22.1413 23.8228 21.5602 23.0549 21.2483 22.1667H20.5833V26.7188V27.6086V29.9836C20.5833 31.7886 22.0131 33.25 23.7769 33.25H34.808C36.5702 33.25 38 31.7886 38 29.9852V27.6102V26.7203V8.01483C38 6.21458 36.5686 4.75 34.8064 4.75Z" fill="white"/>
<path d="M15.0939 22.1667V28.5H2.32275V8.61017C2.32275 7.79 2.9735 7.125 3.77308 7.125H13.642C14.4432 7.125 15.0939 7.79 15.0939 8.61017V12.6667H17.4167V8.01483C17.4167 6.21458 15.9853 4.75 14.2231 4.75H3.19358C1.43133 4.75 0 6.21458 0 8.01483V26.7172V27.607V29.982C0 31.7886 1.42975 33.25 3.19358 33.25H14.2247C15.9869 33.25 17.4167 31.7886 17.4167 29.9852V27.6102V26.7203V22.1667H15.0939Z" fill="white"/>
</svg>
